<svg width="20" height="20" viewBox="0 0 20 20"  xmlns="http://www.w3.org/2000/svg">
<path d="M17.9194 10.741H16.2174V1.75854C16.2169 1.2923 16.0315 0.845312 15.7018 0.515634C15.3721 0.185956 14.9251 0.000516458 14.4589 0L5.8501 0C5.3839 0.000645253 4.93699 0.186126 4.60734 0.515776C4.27769 0.845426 4.09221 1.29234 4.09156 1.75854V10.741H2.24425C2.06008 10.7405 1.87814 10.7812 1.71165 10.8599C1.54517 10.9386 1.39832 11.0535 1.28181 11.1961C1.07289 11.4515 0.973709 11.7794 1.00598 12.1078C1.03826 12.4362 1.19936 12.7384 1.454 12.9483L9.18668 19.2956C9.50751 19.5603 9.91196 19.7023 10.3278 19.6963C10.7437 19.6903 11.1438 19.5367 11.4569 19.2629L18.7369 12.9249C18.8712 12.8081 18.9788 12.6638 19.0526 12.5018C19.1263 12.3398 19.1644 12.1638 19.1642 11.9859C19.1639 11.6558 19.0326 11.3394 18.7992 11.106C18.5658 10.8726 18.2494 10.7414 17.9194 10.741Z" />
<path fill-rule="evenodd" clip-rule="evenodd" d="M10.7602 13.8424L10.7563 13.2258C12.2793 13.0936 13.3686 12.2766 13.3686 10.8119C13.3686 9.46197 12.5108 8.85898 11.2504 8.54775L10.7563 8.43299V5.82066C11.4974 5.92181 11.9526 6.38475 12.0304 6.95273C12.0401 7.02859 12.1062 7.08695 12.184 7.08695H13.0574C13.1508 7.08695 13.2227 7.0072 13.213 6.91578C13.0963 5.70395 12.0965 4.92589 10.7641 4.79167V4.15561C10.7641 4.07003 10.694 4 10.6085 4H10.0619C9.97629 4 9.90626 4.07003 9.90626 4.15561V4.79751C8.5291 4.93173 7.45149 5.69422 7.45149 7.11224C7.45149 8.42715 8.42017 9.06127 9.43748 9.30441L9.91793 9.42696V12.2027C9.05623 12.0879 8.57578 11.6269 8.47658 11.0103C8.46491 10.9364 8.39877 10.8819 8.32291 10.8819H7.42425C7.33283 10.8819 7.26086 10.9597 7.26864 11.0512C7.35617 12.121 8.16925 13.1052 9.89654 13.2336V13.8444C9.89654 13.93 9.96656 14 10.0521 14H10.6046C10.6902 14 10.7602 13.928 10.7602 13.8424ZM9.62425 8.13733C8.96679 7.90002 8.6614 7.51682 8.6614 7.02276C8.6614 6.31667 9.19826 5.91402 9.91602 5.8226V8.23458C9.80709 8.20346 9.71567 8.17428 9.62425 8.13733ZM10.7563 9.6098C10.8186 9.62731 10.873 9.64092 10.9275 9.6526C11.8475 9.9327 12.1568 10.3217 12.1568 10.9189C12.1568 11.6814 11.585 12.1365 10.7563 12.2105V9.6098Z" fill="white"/>
<path d="M10.7563 13.2258L10.7455 13.1013L10.6306 13.1113L10.6313 13.2266L10.7563 13.2258ZM10.7602 13.8424H10.8852L10.8852 13.8417L10.7602 13.8424ZM11.2504 8.54775L11.2803 8.42639L11.2786 8.42599L11.2504 8.54775ZM10.7563 8.43299H10.6313V8.53228L10.728 8.55475L10.7563 8.43299ZM10.7563 5.82066L10.7732 5.69681L10.6313 5.67744V5.82066H10.7563ZM12.0304 6.95273L12.1544 6.93684L12.1542 6.93577L12.0304 6.95273ZM13.213 6.91578L13.0886 6.92776L13.0887 6.929L13.213 6.91578ZM10.7641 4.79167H10.6391V4.90472L10.7515 4.91605L10.7641 4.79167ZM9.90626 4.79751L9.91839 4.92192L10.0313 4.91092V4.79751H9.90626ZM9.43748 9.30441L9.46838 9.18328L9.46654 9.18284L9.43748 9.30441ZM9.91793 9.42696H10.0429V9.32984L9.94883 9.30584L9.91793 9.42696ZM9.91793 12.2027L9.90143 12.3266L10.0429 12.3454V12.2027H9.91793ZM8.47658 11.0103L8.35311 11.0298L8.35317 11.0302L8.47658 11.0103ZM7.26864 11.0512L7.39323 11.041L7.39319 11.0406L7.26864 11.0512ZM9.89654 13.2336H10.0215V13.1176L9.9058 13.109L9.89654 13.2336ZM9.62425 8.13733L9.67113 8.02136L9.66668 8.01975L9.62425 8.13733ZM9.91602 5.8226H10.041V5.68067L9.90022 5.6986L9.91602 5.8226ZM9.91602 8.23458L9.88168 8.35477L10.041 8.4003V8.23458H9.91602ZM10.9275 9.6526L10.964 9.53259L10.9537 9.53037L10.9275 9.6526ZM10.7563 9.6098L10.7902 9.48947L10.6313 9.4448V9.6098H10.7563ZM10.7563 12.2105H10.6313V12.3471L10.7674 12.335L10.7563 12.2105ZM10.6313 13.2266L10.6352 13.8432L10.8852 13.8417L10.8813 13.225L10.6313 13.2266ZM13.2436 10.8119C13.2436 11.51 12.9855 12.0454 12.5514 12.4244C12.1142 12.806 11.489 13.0367 10.7455 13.1013L10.7671 13.3504C11.5467 13.2827 12.2276 13.0388 12.7158 12.6127C13.2071 12.1839 13.4936 11.5785 13.4936 10.8119H13.2436ZM11.2204 8.66911C11.8413 8.82242 12.3463 9.04395 12.6954 9.38033C13.0401 9.71238 13.2436 10.1667 13.2436 10.8119H13.4936C13.4936 10.1072 13.2682 9.58504 12.8689 9.20029C12.474 8.81988 11.9199 8.58431 11.2803 8.4264L11.2204 8.66911ZM10.728 8.55475L11.2221 8.66951L11.2786 8.42599L10.7846 8.31123L10.728 8.55475ZM10.6313 5.82066V8.43299H10.8813V5.82066H10.6313ZM12.1542 6.93577C12.0677 6.3041 11.5614 5.80438 10.7732 5.69681L10.7394 5.94451C11.4334 6.03923 11.8374 6.4654 11.9065 6.9697L12.1542 6.93577ZM12.184 6.96195C12.1686 6.96195 12.156 6.94984 12.1543 6.93684L11.9064 6.96863C11.9242 7.10735 12.0438 7.21195 12.184 7.21195V6.96195ZM13.0574 6.96195H12.184V7.21195H13.0574V6.96195ZM13.0887 6.929C13.0905 6.94552 13.0776 6.96195 13.0574 6.96195V7.21195C13.224 7.21195 13.355 7.06888 13.3373 6.90255L13.0887 6.929ZM10.7515 4.91605C12.0445 5.04629 12.9793 5.79315 13.0886 6.92776L13.3374 6.90379C13.2133 5.61475 12.1485 4.80549 10.7766 4.6673L10.7515 4.91605ZM10.6391 4.15561V4.79167H10.8891V4.15561H10.6391ZM10.6085 4.125C10.625 4.125 10.6391 4.13906 10.6391 4.15561H10.8891C10.8891 4.00099 10.7631 3.875 10.6085 3.875V4.125ZM10.0619 4.125H10.6085V3.875H10.0619V4.125ZM10.0313 4.15561C10.0313 4.13906 10.0453 4.125 10.0619 4.125V3.875C9.90725 3.875 9.78126 4.00099 9.78126 4.15561H10.0313ZM10.0313 4.79751V4.15561H9.78126V4.79751H10.0313ZM7.57649 7.11224C7.57649 6.43842 7.83095 5.928 8.24454 5.5677C8.66128 5.20467 9.24788 4.98727 9.91839 4.92192L9.89414 4.6731C9.18748 4.74197 8.5467 4.97293 8.08033 5.3792C7.61083 5.7882 7.32649 6.36804 7.32649 7.11224H7.57649ZM9.46654 9.18284C8.9713 9.06448 8.49761 8.85299 8.1494 8.51991C7.80441 8.18992 7.57649 7.73516 7.57649 7.11224H7.32649C7.32649 7.80423 7.5829 8.32399 7.97659 8.70057C8.36705 9.07406 8.88635 9.30121 9.40842 9.42599L9.46654 9.18284ZM9.94883 9.30584L9.46837 9.18329L9.40659 9.42554L9.88704 9.54808L9.94883 9.30584ZM10.0429 12.2027V9.42696H9.79293V12.2027H10.0429ZM8.35317 11.0302C8.40725 11.3664 8.56627 11.6627 8.8298 11.8894C9.09231 12.1153 9.45221 12.2668 9.90143 12.3266L9.93443 12.0788C9.52195 12.0238 9.21078 11.8874 8.99284 11.6999C8.77592 11.5133 8.64511 11.2709 8.59999 10.9905L8.35317 11.0302ZM8.32291 11.0069C8.34019 11.0069 8.35148 11.0195 8.35311 11.0298L8.60005 10.9908C8.57834 10.8533 8.45736 10.7569 8.32291 10.7569V11.0069ZM7.42425 11.0069H8.32291V10.7569H7.42425V11.0069ZM7.39319 11.0406C7.39165 11.0225 7.40568 11.0069 7.42425 11.0069V10.7569C7.25998 10.7569 7.13007 10.897 7.14409 11.0618L7.39319 11.0406ZM9.9058 13.109C9.06442 13.0464 8.4578 12.7766 8.05233 12.4035C7.64703 12.0305 7.43463 11.547 7.39323 11.041L7.14406 11.0613C7.19019 11.6252 7.42809 12.1687 7.88303 12.5874C8.3378 13.0059 9.00136 13.2924 9.88727 13.3583L9.9058 13.109ZM10.0215 13.8444V13.2336H9.77154V13.8444H10.0215ZM10.0521 13.875C10.0356 13.875 10.0215 13.8609 10.0215 13.8444H9.77154C9.77154 13.999 9.89753 14.125 10.0521 14.125V13.875ZM10.6046 13.875H10.0521V14.125H10.6046V13.875ZM10.6352 13.8424C10.6352 13.8507 10.6318 13.8591 10.6253 13.8657C10.6189 13.8722 10.6115 13.875 10.6046 13.875V14.125C10.7612 14.125 10.8852 13.995 10.8852 13.8424H10.6352ZM8.5364 7.02276C8.5364 7.29779 8.62224 7.54613 8.80088 7.7571C8.97774 7.96597 9.23963 8.1314 9.58181 8.2549L9.66668 8.01975C9.3514 7.90595 9.13187 7.76113 8.99167 7.59555C8.85325 7.43208 8.7864 7.24179 8.7864 7.02276H8.5364ZM9.90022 5.6986C9.52385 5.74654 9.18403 5.8773 8.9362 6.09902C8.68546 6.32335 8.5364 6.63456 8.5364 7.02276H8.7864C8.7864 6.70487 8.90576 6.4617 9.10289 6.28534C9.30294 6.10636 9.59042 5.99008 9.93181 5.9466L9.90022 5.6986ZM10.041 8.23458V5.8226H9.79102V8.23458H10.041ZM9.5774 8.25322C9.67462 8.29252 9.77076 8.32308 9.88168 8.35477L9.95036 8.11439C9.84342 8.08384 9.75672 8.05605 9.67109 8.02144L9.5774 8.25322ZM10.9537 9.53037C10.9022 9.51933 10.8503 9.50638 10.7902 9.48947L10.7225 9.73013C10.7869 9.74824 10.8439 9.76252 10.9013 9.77482L10.9537 9.53037ZM12.2818 10.9189C12.2818 10.5963 12.1972 10.3168 11.9787 10.0817C11.7647 9.85143 11.433 9.67582 10.9639 9.53301L10.8911 9.77218C11.3421 9.90948 11.625 10.0684 11.7956 10.2519C11.9618 10.4308 12.0318 10.6443 12.0318 10.9189H12.2818ZM10.7674 12.335C11.2005 12.2963 11.5785 12.1571 11.8502 11.9165C12.1246 11.6734 12.2818 11.3345 12.2818 10.9189H12.0318C12.0318 11.2658 11.9031 11.5357 11.6844 11.7293C11.4631 11.9254 11.1407 12.0507 10.7452 12.086L10.7674 12.335ZM10.6313 9.6098V12.2105H10.8813V9.6098H10.6313Z" fill="white"/>
</svg>
