<svg width="20" height="20" viewBox="0 0 20 20" fill="none" xmlns="http://www.w3.org/2000/svg">
<g clip-path="url(#clip0_273_3051)">
<path fill-rule="evenodd" clip-rule="evenodd" d="M13.5 1.677H12.7245V1.0865C12.7245 0.943777 12.6963 0.802452 12.6417 0.670599C12.5871 0.538746 12.507 0.418949 12.4061 0.318052C12.3051 0.217155 12.1853 0.137134 12.0534 0.0825617C11.9215 0.0279893 11.7802 -6.53363e-05 11.6375 1.14256e-07H8.34797C8.20525 -6.53363e-05 8.06391 0.0279893 7.93203 0.0825617C7.80015 0.137134 7.68032 0.217155 7.57938 0.318052C7.47843 0.418949 7.39836 0.538746 7.34372 0.670599C7.28909 0.802452 7.26097 0.943777 7.26097 1.0865V1.677H6.5V4.1075C6.5 4.38364 6.72386 4.6075 7 4.6075H13C13.2761 4.6075 13.5 4.38364 13.5 4.1075V1.677ZM9.99797 3.5285C9.76095 3.5284 9.52928 3.45803 9.33225 3.32627C9.13523 3.19452 8.98169 3.00731 8.89106 2.7883C8.80042 2.56929 8.77676 2.32833 8.82306 2.09588C8.86936 1.86342 8.98354 1.64992 9.15118 1.48236C9.31881 1.31479 9.53236 1.2007 9.76484 1.15449C9.99731 1.10829 10.2383 1.13205 10.4572 1.22278C10.6762 1.3135 10.8633 1.46712 10.995 1.6642C11.1267 1.86128 11.197 2.09298 11.197 2.33C11.1965 3.089 10.66 3.5285 9.99797 3.5285ZM17.2625 2.61349H15V4.827C15 5.37928 14.5523 5.827 14 5.827H6C5.44772 5.827 5 5.37928 5 4.827V2.61349H2.728C2.326 2.61349 2 2.9395 2 3.3415V18.273C2 18.674 2.326 19 2.728 19H17.2625C17.6645 19 17.99 18.674 17.99 18.2725V3.341C17.99 2.93899 17.6645 2.61349 17.2625 2.61349ZM4.25 9C4.25 8.58579 4.58579 8.25 5 8.25H15C15.4142 8.25 15.75 8.58579 15.75 9C15.75 9.41421 15.4142 9.75 15 9.75H5C4.58579 9.75 4.25 9.41421 4.25 9ZM4.25 12.5C4.25 12.0858 4.58579 11.75 5 11.75H11C11.4142 11.75 11.75 12.0858 11.75 12.5C11.75 12.9142 11.4142 13.25 11 13.25H5C4.58579 13.25 4.25 12.9142 4.25 12.5Z" fill="#0D45D4"/>
<path fill-rule="evenodd" clip-rule="evenodd" d="M4.25 16C4.25 15.5858 4.58579 15.25 5 15.25H11C11.4142 15.25 11.75 15.5858 11.75 16C11.75 16.4142 11.4142 16.75 11 16.75H5C4.58579 16.75 4.25 16.4142 4.25 16Z" fill="#11C6FF"/>
</g>
<defs>
<clipPath id="clip0_273_3051">
<rect width="20" height="20" fill="white"/>
</clipPath>
</defs>
</svg>
